<svg width="800" height="600" xmlns="http://www.w3.org/2000/svg">

 <g>
  <title>Layer 1</title>
  <g stroke="null">
   <path style="--darkreader-inline-fill: var(--darkreader-background-000000, #000000);" stroke="null" d="m273.62726,497.79662c-5.21832,1.56374 -10.01003,3.24451 -14.92272,4.41953c-3.83785,0.91796 -4.9545,3.16855 -5.0723,6.80471c-0.25138,7.75683 -1.28827,15.45915 -2.92393,23.0351c-2.39898,11.11158 -8.66915,14.66569 -19.55025,11.40517c-1.51185,-0.45301 -3.01372,-0.99799 -4.4392,-1.67175c-30.83671,-14.57627 -63.32076,-25.22887 -94.15885,-39.85445c-30.88329,-14.64704 -62.17242,-28.43759 -93.26449,-42.64552c-10.0758,-4.60428 -20.10061,-9.32071 -30.1247,-14.03691c-1.70867,-0.80387 -3.46448,-1.66262 -4.90227,-2.85364c-2.68146,-2.22125 -2.80292,-4.64198 0.5449,-6.31897c3.95698,-1.98219 7.99746,-3.82985 12.10915,-5.4659c29.8548,-11.87952 60.07753,-22.75319 90.46866,-33.18022c21.85362,-7.49782 43.59469,-15.32371 65.38661,-23.00141c1.63946,-0.57765 3.24162,-1.21364 4.5369,-2.50054c-0.18961,-2.78609 -2.45094,-3.54185 -4.27484,-4.64612c-19.24196,-11.65043 -38.16675,-23.75868 -55.34545,-38.38059c-5.06936,-4.31483 -10.03186,-8.75855 -13.64715,-14.44008c-3.66991,-5.76744 -2.59489,-8.22978 4.07713,-9.21559c16.43251,-2.42797 33.03289,-3.6179 49.38245,-6.66052c3.22352,-0.59989 6.51478,-1.00117 9.49894,-2.38686c0.13481,-2.64827 -1.58888,-3.99584 -2.86818,-5.50978c-7.81531,-9.2486 -17.00816,-16.98084 -26.73952,-24.11134c-2.05056,-1.50251 -4.38448,-2.91586 -3.94855,-5.96247c0.41568,-2.90524 3.08691,-3.46511 5.24078,-4.20378c13.25558,-4.54597 27.05739,-6.44655 40.89405,-8.04747c12.25686,-1.41816 24.5443,-2.66386 36.88856,-2.88402c4.06844,-0.07258 5.50255,-2.30417 6.45904,-5.60673c3.10856,-10.7331 3.88337,-21.82167 4.30552,-32.85195c0.97499,-25.47341 0.67908,-50.96777 0.06045,-76.45261c-0.0421,-1.73329 -0.33526,-3.46164 -0.53396,-5.18972c-0.40313,-3.50677 0.16498,-6.786 3.23216,-8.88307c3.12851,-2.13902 6.43919,-1.19672 9.44641,0.47575c5.87985,3.27006 10.71363,7.80294 15.09407,12.87315c19.07782,22.08175 33.45055,47.24403 47.12501,72.79247c3.24687,6.0662 6.39819,8.36514 13.65997,7.99017c49.61884,-2.56195 99.23845,-4.8135 148.53629,-11.57532c7.27859,-0.99835 12.55172,-3.54141 16.63179,-9.86809c12.46416,-19.32702 23.19503,-39.59172 33.42982,-60.13369c10.16416,-20.40008 19.80357,-41.04802 28.41608,-62.16405c1.12915,-2.76836 2.49292,-5.50054 4.14971,-7.98125c3.03952,-4.55109 6.93252,-4.69938 10.4831,-0.45312c2.76309,3.30451 4.49532,7.23553 6.03978,11.23883c9.60434,24.89427 15.01025,50.94972 21.11488,76.80083c3.45112,14.61418 6.48421,29.32981 9.50593,44.04074c0.76464,3.72237 2.30342,4.8496 6.15866,4.36863c29.50986,-3.68147 58.83473,-8.77167 88.46365,-11.56036c5.27184,-0.49619 10.44436,-0.11436 15.61531,0.50754c4.72246,0.56799 6.00603,3.178 3.40456,7.32455c-3.71845,5.92696 -8.77743,10.78224 -13.7867,15.61551c-6.37392,6.14979 -12.85424,12.18932 -19.94988,18.9019c7.34238,0.44982 13.7755,-0.71067 20.18033,-1.4613c32.05938,-3.75729 63.9967,-8.40268 95.80956,-13.86728c4.49387,-0.77192 6.80419,0.48582 7.73902,5.08503c1.56685,7.70885 -1.099,14.36722 -4.62852,20.81799c-7.18668,13.1349 -17.78645,23.36122 -28.83268,33.1486c-18.16911,16.0986 -38.24773,29.60927 -59.09475,42.94773c2.08602,1.59715 4.14757,1.26479 6.04338,1.50628c18.03517,2.29712 36.25218,3.47884 53.83973,8.54314c3.48527,1.00355 6.86316,2.40991 10.23507,3.76832c3.37887,1.36119 4.03693,3.73315 2.19086,6.84405c-4.14316,6.98179 -9.41384,13.10267 -14.82997,19.07989c-29.92216,33.02219 -67.13695,55.47118 -107.24617,73.66158c-49.09685,22.26644 -100.50321,37.1944 -153.13597,48.31992c-29.74964,6.28845 -59.75612,10.92801 -89.9053,14.60601c-28.58705,3.48743 -57.30085,5.75504 -86.09908,6.61336c-3.92428,0.11699 -5.62783,1.62863 -6.51109,5.24511c-0.78281,3.20514 -1.93861,6.38056 -3.37977,9.35078c-3.03926,6.26392 -7.68457,7.52516 -13.62517,3.77354c-4.86906,-3.0749 -8.90886,-7.2634 -12.35567,-11.71863c-4.47401,-5.78295 -9.4616,-7.15191 -16.30122,-4.16081m259.41713,-195.62703c6.79543,-4.40579 6.99728,-8.07228 0.53302,-13.14306c-4.23994,-3.32595 -8.85176,-6.04909 -13.85791,-8.16281c-17.00024,-7.17804 -34.86382,-10.44331 -53.14532,-10.96167c-16.07286,-0.45568 -31.9815,1.12266 -46.3778,9.4157c-13.75736,7.92494 -25.01413,18.28907 -31.26628,33.2319c-2.19466,5.24529 -1.12643,6.79161 4.32504,7.87716c14.68375,2.92378 29.51882,3.34738 44.41466,2.64355c2.45378,-0.11595 4.893,-0.53996 7.30785,-0.81801c-0.79813,-8.88975 2.23447,-14.34209 7.87217,-14.77207c5.51696,-0.42076 9.06855,4.48384 9.52222,13.67379c23.4111,-3.11998 46.66435,-6.42309 68.60741,-17.81669m-245.2889,25.74707c13.67316,0.44429 22.45745,-7.71295 30.96758,-16.61546c2.3815,-2.4913 2.10034,-5.01893 0.20232,-7.67964c-3.65009,-5.11681 -8.2238,-9.22147 -13.7174,-12.19196c-23.60061,-12.76117 -48.91796,-14.49668 -74.70012,-10.20666c-10.36794,1.72525 -19.73586,6.99065 -25.58391,16.56046c-4.57622,7.48851 -3.18834,13.80039 3.85629,19.01734c3.49056,2.58496 7.48327,4.07129 11.57526,5.34161c6.26618,1.94536 6.45824,1.8347 7.90682,-4.30851c1.20917,-5.12789 5.41113,-7.94886 10.08634,-6.77137c4.61037,1.16119 7.30272,5.83985 6.24982,10.72717c-0.31734,1.4729 -1.6894,2.80026 -0.61415,4.65415c3.80002,1.44261 7.9178,1.34928 12.9258,1.51405m-6.46281,176.61211c-14.35817,5.47445 -26.67747,11.82675 -38.55114,20.9158c8.6779,5.19437 16.7207,9.75174 25.7911,12.15339c2.11023,0.55872 4.40008,0.72137 6.9984,-1.09999m49.30431,-41.19363c3.68044,4.5596 7.73551,8.75403 12.52707,12.14421c2.11153,1.49396 4.69976,2.88591 6.39093,-0.421c3.30468,-6.46203 4.95512,-13.43558 6.25363,-21.17866c-9.25536,1.2496 -17.38964,4.28511 -25.78169,6.13724c-2.28892,0.50516 -0.23349,1.87961 0.61007,3.31821m-105.7554,-66.75953" fill="#000000"/>
  </g>
 </g>
</svg>